<?xml version="1.0" encoding="UTF-8" standalone="no"?>
<!DOCTYPE svg PUBLIC "-//W3C//DTD SVG 1.1//EN"
 "http://www.w3.org/Graphics/SVG/1.1/DTD/svg11.dtd">
<!-- Generated by graphviz version 2.43.0 (0)
 -->
<!-- Title: snakemake_dag Pages: 1 -->
<svg width="778pt" height="404pt"
 viewBox="0.00 0.00 778.00 404.00" xmlns="http://www.w3.org/2000/svg" xmlns:xlink="http://www.w3.org/1999/xlink">
<g id="graph0" class="graph" transform="scale(1 1) rotate(0) translate(4 400)">
<title>snakemake_dag</title>
<polygon fill="white" stroke="transparent" points="-4,4 -4,-400 774,-400 774,4 -4,4"/>
<!-- 0 -->
<g id="node1" class="node">
<title>0</title>
<path fill="none" stroke="#59d856" stroke-width="2" d="M416,-36C416,-36 386,-36 386,-36 380,-36 374,-30 374,-24 374,-24 374,-12 374,-12 374,-6 380,0 386,0 386,0 416,0 416,0 422,0 428,-6 428,-12 428,-12 428,-24 428,-24 428,-30 422,-36 416,-36"/>
<text text-anchor="middle" x="401" y="-15.5" font-family="sans" font-size="10.00">all</text>
</g>
<!-- 1 -->
<g id="node2" class="node">
<title>1</title>
<path fill="none" stroke="#afd856" stroke-width="2" d="M69.5,-396C69.5,-396 28.5,-396 28.5,-396 22.5,-396 16.5,-390 16.5,-384 16.5,-384 16.5,-372 16.5,-372 16.5,-366 22.5,-360 28.5,-360 28.5,-360 69.5,-360 69.5,-360 75.5,-360 81.5,-366 81.5,-372 81.5,-372 81.5,-384 81.5,-384 81.5,-390 75.5,-396 69.5,-396"/>
<text text-anchor="middle" x="49" y="-381" font-family="sans" font-size="10.00">bwa_map</text>
<text text-anchor="middle" x="49" y="-370" font-family="sans" font-size="10.00">sample: A</text>
</g>
<!-- 1&#45;&gt;0 -->
<g id="edge1" class="edge">
<title>1&#45;&gt;0</title>
<path fill="none" stroke="grey" stroke-width="2" d="M38.85,-359.73C24.49,-333.64 0,-282.2 0,-235 0,-235 0,-235 0,-161 0,-113.3 19.73,-97.58 60,-72 109.93,-40.28 285.72,-25.96 363.5,-21.07"/>
<polygon fill="grey" stroke="grey" stroke-width="2" points="364.03,-24.55 373.8,-20.44 363.6,-17.56 364.03,-24.55"/>
</g>
<!-- 5 -->
<g id="node6" class="node">
<title>5</title>
<path fill="none" stroke="#56d8a9" stroke-width="2" d="M137,-324C137,-324 99,-324 99,-324 93,-324 87,-318 87,-312 87,-312 87,-300 87,-300 87,-294 93,-288 99,-288 99,-288 137,-288 137,-288 143,-288 149,-294 149,-300 149,-300 149,-312 149,-312 149,-318 143,-324 137,-324"/>
<text text-anchor="middle" x="118" y="-303.5" font-family="sans" font-size="10.00">sam_sort</text>
</g>
<!-- 1&#45;&gt;5 -->
<g id="edge15" class="edge">
<title>1&#45;&gt;5</title>
<path fill="none" stroke="grey" stroke-width="2" d="M66.06,-359.7C74.5,-351.14 84.82,-340.66 94.04,-331.3"/>
<polygon fill="grey" stroke="grey" stroke-width="2" points="96.61,-333.68 101.14,-324.1 91.63,-328.77 96.61,-333.68"/>
</g>
<!-- 2 -->
<g id="node3" class="node">
<title>2</title>
<path fill="none" stroke="#afd856" stroke-width="2" d="M248.5,-396C248.5,-396 207.5,-396 207.5,-396 201.5,-396 195.5,-390 195.5,-384 195.5,-384 195.5,-372 195.5,-372 195.5,-366 201.5,-360 207.5,-360 207.5,-360 248.5,-360 248.5,-360 254.5,-360 260.5,-366 260.5,-372 260.5,-372 260.5,-384 260.5,-384 260.5,-390 254.5,-396 248.5,-396"/>
<text text-anchor="middle" x="228" y="-381" font-family="sans" font-size="10.00">bwa_map</text>
<text text-anchor="middle" x="228" y="-370" font-family="sans" font-size="10.00">sample: B</text>
</g>
<!-- 2&#45;&gt;0 -->
<g id="edge2" class="edge">
<title>2&#45;&gt;0</title>
<path fill="none" stroke="grey" stroke-width="2" d="M195.5,-373.07C162.24,-367.48 110.92,-354.3 78,-324 46.09,-294.63 38,-278.37 38,-235 38,-235 38,-235 38,-161 38,-99.14 89.27,-98.85 145,-72 217.49,-37.07 312.35,-25.1 363.84,-21.04"/>
<polygon fill="grey" stroke="grey" stroke-width="2" points="364.12,-24.53 373.84,-20.31 363.61,-17.55 364.12,-24.53"/>
</g>
<!-- 6 -->
<g id="node7" class="node">
<title>6</title>
<path fill="none" stroke="#56d8a9" stroke-width="2" d="M290,-324C290,-324 252,-324 252,-324 246,-324 240,-318 240,-312 240,-312 240,-300 240,-300 240,-294 246,-288 252,-288 252,-288 290,-288 290,-288 296,-288 302,-294 302,-300 302,-300 302,-312 302,-312 302,-318 296,-324 290,-324"/>
<text text-anchor="middle" x="271" y="-303.5" font-family="sans" font-size="10.00">sam_sort</text>
</g>
<!-- 2&#45;&gt;6 -->
<g id="edge16" class="edge">
<title>2&#45;&gt;6</title>
<path fill="none" stroke="grey" stroke-width="2" d="M238.63,-359.7C243.63,-351.56 249.69,-341.69 255.21,-332.7"/>
<polygon fill="grey" stroke="grey" stroke-width="2" points="258.24,-334.46 260.49,-324.1 252.28,-330.79 258.24,-334.46"/>
</g>
<!-- 3 -->
<g id="node4" class="node">
<title>3</title>
<path fill="none" stroke="#afd856" stroke-width="2" d="M464.5,-396C464.5,-396 423.5,-396 423.5,-396 417.5,-396 411.5,-390 411.5,-384 411.5,-384 411.5,-372 411.5,-372 411.5,-366 417.5,-360 423.5,-360 423.5,-360 464.5,-360 464.5,-360 470.5,-360 476.5,-366 476.5,-372 476.5,-372 476.5,-384 476.5,-384 476.5,-390 470.5,-396 464.5,-396"/>
<text text-anchor="middle" x="444" y="-381" font-family="sans" font-size="10.00">bwa_map</text>
<text text-anchor="middle" x="444" y="-370" font-family="sans" font-size="10.00">sample: C</text>
</g>
<!-- 3&#45;&gt;0 -->
<g id="edge3" class="edge">
<title>3&#45;&gt;0</title>
<path fill="none" stroke="grey" stroke-width="2" d="M439.4,-359.77C430.55,-325.73 411.4,-247.3 404,-180 398.89,-133.52 399.18,-79.04 399.99,-46.86"/>
<polygon fill="grey" stroke="grey" stroke-width="2" points="403.5,-46.56 400.29,-36.46 396.5,-46.35 403.5,-46.56"/>
</g>
<!-- 7 -->
<g id="node8" class="node">
<title>7</title>
<path fill="none" stroke="#56d8a9" stroke-width="2" d="M503,-324C503,-324 465,-324 465,-324 459,-324 453,-318 453,-312 453,-312 453,-300 453,-300 453,-294 459,-288 465,-288 465,-288 503,-288 503,-288 509,-288 515,-294 515,-300 515,-300 515,-312 515,-312 515,-318 509,-324 503,-324"/>
<text text-anchor="middle" x="484" y="-303.5" font-family="sans" font-size="10.00">sam_sort</text>
</g>
<!-- 3&#45;&gt;7 -->
<g id="edge17" class="edge">
<title>3&#45;&gt;7</title>
<path fill="none" stroke="grey" stroke-width="2" d="M453.89,-359.7C458.49,-351.64 464.06,-341.89 469.15,-332.98"/>
<polygon fill="grey" stroke="grey" stroke-width="2" points="472.3,-334.52 474.23,-324.1 466.23,-331.05 472.3,-334.52"/>
</g>
<!-- 4 -->
<g id="node5" class="node">
<title>4</title>
<path fill="none" stroke="#afd856" stroke-width="2" d="M751,-396C751,-396 709,-396 709,-396 703,-396 697,-390 697,-384 697,-384 697,-372 697,-372 697,-366 703,-360 709,-360 709,-360 751,-360 751,-360 757,-360 763,-366 763,-372 763,-372 763,-384 763,-384 763,-390 757,-396 751,-396"/>
<text text-anchor="middle" x="730" y="-381" font-family="sans" font-size="10.00">bwa_map</text>
<text text-anchor="middle" x="730" y="-370" font-family="sans" font-size="10.00">sample: D</text>
</g>
<!-- 4&#45;&gt;0 -->
<g id="edge4" class="edge">
<title>4&#45;&gt;0</title>
<path fill="none" stroke="grey" stroke-width="2" d="M738.09,-359.95C749.78,-333.72 770,-281.61 770,-235 770,-235 770,-235 770,-161 770,-94.24 709.89,-99.37 649,-72 578.52,-40.32 488.11,-27.17 438.22,-22.03"/>
<polygon fill="grey" stroke="grey" stroke-width="2" points="438.51,-18.54 428.22,-21.05 437.83,-25.51 438.51,-18.54"/>
</g>
<!-- 8 -->
<g id="node9" class="node">
<title>8</title>
<path fill="none" stroke="#56d8a9" stroke-width="2" d="M709,-324C709,-324 671,-324 671,-324 665,-324 659,-318 659,-312 659,-312 659,-300 659,-300 659,-294 665,-288 671,-288 671,-288 709,-288 709,-288 715,-288 721,-294 721,-300 721,-300 721,-312 721,-312 721,-318 715,-324 709,-324"/>
<text text-anchor="middle" x="690" y="-303.5" font-family="sans" font-size="10.00">sam_sort</text>
</g>
<!-- 4&#45;&gt;8 -->
<g id="edge18" class="edge">
<title>4&#45;&gt;8</title>
<path fill="none" stroke="grey" stroke-width="2" d="M720.11,-359.7C715.51,-351.64 709.94,-341.89 704.85,-332.98"/>
<polygon fill="grey" stroke="grey" stroke-width="2" points="707.77,-331.05 699.77,-324.1 701.7,-334.52 707.77,-331.05"/>
</g>
<!-- 5&#45;&gt;0 -->
<g id="edge5" class="edge">
<title>5&#45;&gt;0</title>
<path fill="none" stroke="grey" stroke-width="2" d="M107.94,-287.82C98.71,-269.81 87.51,-240.74 95,-216 117.29,-142.38 128.18,-116.38 191,-72 243.32,-35.04 318.99,-23.8 363.77,-20.42"/>
<polygon fill="grey" stroke="grey" stroke-width="2" points="364.17,-23.9 373.92,-19.75 363.71,-16.91 364.17,-23.9"/>
</g>
<!-- 9 -->
<g id="node10" class="node">
<title>9</title>
<path fill="none" stroke="#d8ac56" stroke-width="2" d="M162,-252C162,-252 116,-252 116,-252 110,-252 104,-246 104,-240 104,-240 104,-228 104,-228 104,-222 110,-216 116,-216 116,-216 162,-216 162,-216 168,-216 174,-222 174,-228 174,-228 174,-240 174,-240 174,-246 168,-252 162,-252"/>
<text text-anchor="middle" x="139" y="-231.5" font-family="sans" font-size="10.00">sam_index</text>
</g>
<!-- 5&#45;&gt;9 -->
<g id="edge19" class="edge">
<title>5&#45;&gt;9</title>
<path fill="none" stroke="grey" stroke-width="2" d="M123.19,-287.7C125.53,-279.9 128.35,-270.51 130.95,-261.83"/>
<polygon fill="grey" stroke="grey" stroke-width="2" points="134.35,-262.69 133.87,-252.1 127.64,-260.68 134.35,-262.69"/>
</g>
<!-- 13 -->
<g id="node14" class="node">
<title>13</title>
<path fill="none" stroke="#56a9d8" stroke-width="2" d="M455,-180C455,-180 425,-180 425,-180 419,-180 413,-174 413,-168 413,-168 413,-156 413,-156 413,-150 419,-144 425,-144 425,-144 455,-144 455,-144 461,-144 467,-150 467,-156 467,-156 467,-168 467,-168 467,-174 461,-180 455,-180"/>
<text text-anchor="middle" x="440" y="-159.5" font-family="sans" font-size="10.00">bcf_call</text>
</g>
<!-- 5&#45;&gt;13 -->
<g id="edge23" class="edge">
<title>5&#45;&gt;13</title>
<path fill="none" stroke="grey" stroke-width="2" d="M140.82,-287.77C167.8,-268.08 214.67,-236.01 259,-216 306.74,-194.45 365.49,-179.14 402.85,-170.68"/>
<polygon fill="grey" stroke="grey" stroke-width="2" points="403.79,-174.06 412.79,-168.48 402.27,-167.23 403.79,-174.06"/>
</g>
<!-- 6&#45;&gt;0 -->
<g id="edge6" class="edge">
<title>6&#45;&gt;0</title>
<path fill="none" stroke="grey" stroke-width="2" d="M264.65,-287.98C258.82,-269.84 252.06,-240.45 259,-216 279.35,-144.36 339.22,-77.79 374.39,-43.4"/>
<polygon fill="grey" stroke="grey" stroke-width="2" points="377.13,-45.62 381.92,-36.17 372.28,-40.57 377.13,-45.62"/>
</g>
<!-- 10 -->
<g id="node11" class="node">
<title>10</title>
<path fill="none" stroke="#d8ac56" stroke-width="2" d="M326,-252C326,-252 280,-252 280,-252 274,-252 268,-246 268,-240 268,-240 268,-228 268,-228 268,-222 274,-216 280,-216 280,-216 326,-216 326,-216 332,-216 338,-222 338,-228 338,-228 338,-240 338,-240 338,-246 332,-252 326,-252"/>
<text text-anchor="middle" x="303" y="-231.5" font-family="sans" font-size="10.00">sam_index</text>
</g>
<!-- 6&#45;&gt;10 -->
<g id="edge20" class="edge">
<title>6&#45;&gt;10</title>
<path fill="none" stroke="grey" stroke-width="2" d="M278.91,-287.7C282.55,-279.73 286.95,-270.1 290.99,-261.26"/>
<polygon fill="grey" stroke="grey" stroke-width="2" points="294.21,-262.65 295.18,-252.1 287.84,-259.74 294.21,-262.65"/>
</g>
<!-- 6&#45;&gt;13 -->
<g id="edge24" class="edge">
<title>6&#45;&gt;13</title>
<path fill="none" stroke="grey" stroke-width="2" d="M297.76,-287.81C312.66,-277.88 331.32,-264.84 347,-252 371.81,-231.68 398.03,-206.18 416.28,-187.68"/>
<polygon fill="grey" stroke="grey" stroke-width="2" points="419.09,-189.82 423.59,-180.22 414.09,-184.92 419.09,-189.82"/>
</g>
<!-- 7&#45;&gt;0 -->
<g id="edge7" class="edge">
<title>7&#45;&gt;0</title>
<path fill="none" stroke="grey" stroke-width="2" d="M515.24,-288.01C528.21,-279.14 541.88,-266.99 549,-252 569.15,-209.58 588.6,-146.15 532,-72 509.7,-42.78 468.63,-29.61 438.4,-23.71"/>
<polygon fill="grey" stroke="grey" stroke-width="2" points="438.66,-20.2 428.2,-21.91 437.44,-27.09 438.66,-20.2"/>
</g>
<!-- 11 -->
<g id="node12" class="node">
<title>11</title>
<path fill="none" stroke="#d8ac56" stroke-width="2" d="M528,-252C528,-252 482,-252 482,-252 476,-252 470,-246 470,-240 470,-240 470,-228 470,-228 470,-222 476,-216 482,-216 482,-216 528,-216 528,-216 534,-216 540,-222 540,-228 540,-228 540,-240 540,-240 540,-246 534,-252 528,-252"/>
<text text-anchor="middle" x="505" y="-231.5" font-family="sans" font-size="10.00">sam_index</text>
</g>
<!-- 7&#45;&gt;11 -->
<g id="edge21" class="edge">
<title>7&#45;&gt;11</title>
<path fill="none" stroke="grey" stroke-width="2" d="M489.19,-287.7C491.53,-279.9 494.35,-270.51 496.95,-261.83"/>
<polygon fill="grey" stroke="grey" stroke-width="2" points="500.35,-262.69 499.87,-252.1 493.64,-260.68 500.35,-262.69"/>
</g>
<!-- 7&#45;&gt;13 -->
<g id="edge25" class="edge">
<title>7&#45;&gt;13</title>
<path fill="none" stroke="grey" stroke-width="2" d="M475.53,-287.64C470.8,-277.43 465.05,-264.18 461,-252 454.26,-231.69 448.79,-208.1 445.13,-190.3"/>
<polygon fill="grey" stroke="grey" stroke-width="2" points="448.53,-189.44 443.14,-180.31 441.66,-190.81 448.53,-189.44"/>
</g>
<!-- 8&#45;&gt;0 -->
<g id="edge8" class="edge">
<title>8&#45;&gt;0</title>
<path fill="none" stroke="grey" stroke-width="2" d="M700.17,-287.79C709.51,-269.75 720.78,-240.65 713,-216 689.46,-141.45 676.4,-116.31 612,-72 558.99,-35.53 483.11,-24.13 438.26,-20.58"/>
<polygon fill="grey" stroke="grey" stroke-width="2" points="438.32,-17.08 428.1,-19.87 437.83,-24.06 438.32,-17.08"/>
</g>
<!-- 12 -->
<g id="node13" class="node">
<title>12</title>
<path fill="none" stroke="#d8ac56" stroke-width="2" d="M692,-252C692,-252 646,-252 646,-252 640,-252 634,-246 634,-240 634,-240 634,-228 634,-228 634,-222 640,-216 646,-216 646,-216 692,-216 692,-216 698,-216 704,-222 704,-228 704,-228 704,-240 704,-240 704,-246 698,-252 692,-252"/>
<text text-anchor="middle" x="669" y="-231.5" font-family="sans" font-size="10.00">sam_index</text>
</g>
<!-- 8&#45;&gt;12 -->
<g id="edge22" class="edge">
<title>8&#45;&gt;12</title>
<path fill="none" stroke="grey" stroke-width="2" d="M684.81,-287.7C682.47,-279.9 679.65,-270.51 677.05,-261.83"/>
<polygon fill="grey" stroke="grey" stroke-width="2" points="680.36,-260.68 674.13,-252.1 673.65,-262.69 680.36,-260.68"/>
</g>
<!-- 8&#45;&gt;13 -->
<g id="edge26" class="edge">
<title>8&#45;&gt;13</title>
<path fill="none" stroke="grey" stroke-width="2" d="M664.79,-287.89C636.96,-269.3 590.61,-239.16 549,-216 525.3,-202.81 497.82,-189.46 476.39,-179.46"/>
<polygon fill="grey" stroke="grey" stroke-width="2" points="477.85,-176.28 467.3,-175.25 474.9,-182.63 477.85,-176.28"/>
</g>
<!-- 9&#45;&gt;0 -->
<g id="edge9" class="edge">
<title>9&#45;&gt;0</title>
<path fill="none" stroke="grey" stroke-width="2" d="M143.51,-215.85C153.04,-182.97 178.38,-110.88 226,-72 265.78,-39.52 325.18,-26.92 363.51,-22.05"/>
<polygon fill="grey" stroke="grey" stroke-width="2" points="364.19,-25.5 373.72,-20.87 363.39,-18.54 364.19,-25.5"/>
</g>
<!-- 9&#45;&gt;13 -->
<g id="edge27" class="edge">
<title>9&#45;&gt;13</title>
<path fill="none" stroke="grey" stroke-width="2" d="M174.16,-220.2C178.79,-218.7 183.49,-217.25 188,-216 263.41,-195.08 353.52,-177.99 402.96,-169.27"/>
<polygon fill="grey" stroke="grey" stroke-width="2" points="403.63,-172.71 412.88,-167.54 402.42,-165.81 403.63,-172.71"/>
</g>
<!-- 10&#45;&gt;0 -->
<g id="edge10" class="edge">
<title>10&#45;&gt;0</title>
<path fill="none" stroke="grey" stroke-width="2" d="M308.89,-215.65C319.3,-185.67 342.32,-122.52 368,-72 372.62,-62.92 378.29,-53.36 383.63,-44.9"/>
<polygon fill="grey" stroke="grey" stroke-width="2" points="386.74,-46.53 389.22,-36.22 380.86,-42.74 386.74,-46.53"/>
</g>
<!-- 10&#45;&gt;13 -->
<g id="edge28" class="edge">
<title>10&#45;&gt;13</title>
<path fill="none" stroke="grey" stroke-width="2" d="M336.51,-215.88C356.85,-205.49 382.8,-192.22 403.63,-181.58"/>
<polygon fill="grey" stroke="grey" stroke-width="2" points="405.49,-184.56 412.81,-176.9 402.31,-178.33 405.49,-184.56"/>
</g>
<!-- 11&#45;&gt;0 -->
<g id="edge11" class="edge">
<title>11&#45;&gt;0</title>
<path fill="none" stroke="grey" stroke-width="2" d="M511.46,-215.88C522.09,-184.59 539.42,-117.24 511,-72 495.07,-46.65 463.23,-33.13 437.89,-26.12"/>
<polygon fill="grey" stroke="grey" stroke-width="2" points="438.75,-22.72 428.19,-23.65 437.02,-29.51 438.75,-22.72"/>
</g>
<!-- 11&#45;&gt;13 -->
<g id="edge29" class="edge">
<title>11&#45;&gt;13</title>
<path fill="none" stroke="grey" stroke-width="2" d="M488.93,-215.7C481.06,-207.22 471.44,-196.86 462.83,-187.58"/>
<polygon fill="grey" stroke="grey" stroke-width="2" points="465.25,-185.05 455.88,-180.1 460.12,-189.81 465.25,-185.05"/>
</g>
<!-- 12&#45;&gt;0 -->
<g id="edge12" class="edge">
<title>12&#45;&gt;0</title>
<path fill="none" stroke="grey" stroke-width="2" d="M664.52,-215.81C655.04,-182.86 629.8,-110.66 582,-72 540.29,-38.26 477.82,-26 438.25,-21.54"/>
<polygon fill="grey" stroke="grey" stroke-width="2" points="438.53,-18.05 428.23,-20.53 437.82,-25.02 438.53,-18.05"/>
</g>
<!-- 12&#45;&gt;13 -->
<g id="edge30" class="edge">
<title>12&#45;&gt;13</title>
<path fill="none" stroke="grey" stroke-width="2" d="M633.74,-220.54C629.13,-218.98 624.46,-217.43 620,-216 570.8,-200.23 513.48,-183.66 476.98,-173.33"/>
<polygon fill="grey" stroke="grey" stroke-width="2" points="477.84,-169.94 467.26,-170.59 475.94,-176.67 477.84,-169.94"/>
</g>
<!-- 13&#45;&gt;0 -->
<g id="edge13" class="edge">
<title>13&#45;&gt;0</title>
<path fill="none" stroke="grey" stroke-width="2" d="M435.3,-143.87C428.62,-119.56 416.33,-74.82 408.42,-46.01"/>
<polygon fill="grey" stroke="grey" stroke-width="2" points="411.74,-44.91 405.72,-36.19 404.99,-46.76 411.74,-44.91"/>
</g>
<!-- 14 -->
<g id="node15" class="node">
<title>14</title>
<path fill="none" stroke="#d85656" stroke-width="2" d="M490,-108C490,-108 460,-108 460,-108 454,-108 448,-102 448,-96 448,-96 448,-84 448,-84 448,-78 454,-72 460,-72 460,-72 490,-72 490,-72 496,-72 502,-78 502,-84 502,-84 502,-96 502,-96 502,-102 496,-108 490,-108"/>
<text text-anchor="middle" x="475" y="-87.5" font-family="sans" font-size="10.00">report</text>
</g>
<!-- 13&#45;&gt;14 -->
<g id="edge31" class="edge">
<title>13&#45;&gt;14</title>
<path fill="none" stroke="grey" stroke-width="2" d="M448.65,-143.7C452.64,-135.73 457.45,-126.1 461.87,-117.26"/>
<polygon fill="grey" stroke="grey" stroke-width="2" points="465.11,-118.61 466.45,-108.1 458.85,-115.48 465.11,-118.61"/>
</g>
<!-- 14&#45;&gt;0 -->
<g id="edge14" class="edge">
<title>14&#45;&gt;0</title>
<path fill="none" stroke="grey" stroke-width="2" d="M456.71,-71.7C447.57,-63.05 436.36,-52.45 426.4,-43.03"/>
<polygon fill="grey" stroke="grey" stroke-width="2" points="428.75,-40.43 419.08,-36.1 423.94,-45.52 428.75,-40.43"/>
</g>
</g>
</svg>
